<?xml version="1.0" encoding="UTF-8" standalone="no"?>
<!DOCTYPE svg PUBLIC "-//W3C//DTD SVG 1.1//EN" "http://www.w3.org/Graphics/SVG/1.1/DTD/svg11.dtd">
<svg width="100%" height="100%" viewBox="0 0 7742 2800" version="1.1" xmlns="http://www.w3.org/2000/svg" xmlns:xlink="http://www.w3.org/1999/xlink" xml:space="preserve" xmlns:serif="http://www.serif.com/" style="fill-rule:evenodd;clip-rule:evenodd;stroke-linejoin:round;stroke-miterlimit:2;">
    <g id="keyhomes-logo-dark">
        <path d="M653.362,414.598L1067.96,0L1209.24,141.274L707.581,642.929L1172.1,1107.45L1023.06,1256.49L653.362,886.797L653.362,1680.56C920.12,1724.25 1123.95,1956.07 1123.95,2235.13C1123.95,2545.29 872.139,2797.1 561.976,2797.1C251.813,2797.1 0,2545.29 0,2235.13C0,1956.07 203.833,1724.25 470.59,1680.56L470.59,-0.001L653.362,-0.001L653.362,414.598Z" style="fill:rgb(255,0,74);"/>
        <g transform="matrix(1,0,0,1,1210.57,1256.49)">
            <g transform="matrix(1898.02,0,0,1898.02,0,0)">
                <path d="M0.081,-0L0.081,-0.662L0.568,-0.662L0.568,-0.59L0.156,-0.59L0.156,-0.368L0.524,-0.368L0.524,-0.295L0.156,-0.295L0.156,-0.072L0.568,-0.072L0.568,-0L0.081,-0Z" style="fill:rgb(25,25,25);fill-rule:nonzero;"/>
            </g>
            <g transform="matrix(1898.02,0,0,1898.02,1154,0)">
                <path d="M0.281,-0L0.281,-0.262L0.003,-0.662L0.094,-0.662L0.318,-0.34L0.542,-0.662L0.633,-0.662L0.356,-0.262L0.356,-0L0.281,-0Z" style="fill:rgb(25,25,25);fill-rule:nonzero;"/>
            </g>
        </g>
        <g transform="matrix(1,0,0,1,1210.57,2778.52)">
            <g transform="matrix(1898.02,0,0,1898.02,0,0)">
                <path d="M0.081,-0L0.081,-0.662L0.156,-0.662L0.156,-0.368L0.541,-0.368L0.541,-0.662L0.616,-0.662L0.616,-0L0.541,-0L0.541,-0.295L0.156,-0.295L0.156,-0L0.081,-0Z" style="fill:rgb(25,25,25);fill-rule:nonzero;"/>
            </g>
            <g transform="matrix(1898.02,0,0,1898.02,1322.92,0)">
                <path d="M0.375,0.008C0.325,0.008 0.279,-0.001 0.238,-0.018C0.197,-0.035 0.161,-0.06 0.132,-0.091C0.102,-0.122 0.079,-0.159 0.063,-0.2C0.047,-0.241 0.039,-0.284 0.039,-0.331C0.039,-0.378 0.047,-0.422 0.063,-0.463C0.079,-0.504 0.102,-0.54 0.132,-0.571C0.161,-0.602 0.197,-0.627 0.238,-0.644C0.279,-0.661 0.325,-0.67 0.375,-0.67C0.425,-0.67 0.471,-0.661 0.512,-0.644C0.553,-0.627 0.589,-0.602 0.619,-0.571C0.648,-0.54 0.671,-0.504 0.687,-0.463C0.703,-0.422 0.711,-0.378 0.711,-0.331C0.711,-0.284 0.703,-0.241 0.687,-0.2C0.671,-0.159 0.648,-0.122 0.619,-0.091C0.589,-0.06 0.553,-0.035 0.512,-0.018C0.471,-0.001 0.425,0.008 0.375,0.008ZM0.375,-0.065C0.429,-0.065 0.475,-0.077 0.515,-0.101C0.554,-0.124 0.584,-0.156 0.605,-0.197C0.625,-0.237 0.636,-0.282 0.636,-0.331C0.636,-0.381 0.625,-0.426 0.605,-0.466C0.584,-0.506 0.554,-0.538 0.515,-0.562C0.475,-0.585 0.429,-0.597 0.375,-0.597C0.322,-0.597 0.275,-0.585 0.236,-0.562C0.197,-0.538 0.167,-0.506 0.146,-0.466C0.125,-0.426 0.114,-0.381 0.114,-0.331C0.114,-0.282 0.125,-0.237 0.146,-0.197C0.167,-0.156 0.197,-0.124 0.236,-0.101C0.275,-0.077 0.322,-0.065 0.375,-0.065Z" style="fill:rgb(25,25,25);fill-rule:nonzero;"/>
            </g>
            <g transform="matrix(1898.02,0,0,1898.02,2746.43,0)">
                <path d="M0.081,-0L0.081,-0.662L0.168,-0.662L0.405,-0.348L0.638,-0.662L0.725,-0.662L0.725,-0L0.65,-0L0.65,-0.548L0.405,-0.233L0.156,-0.548L0.156,-0L0.081,-0Z" style="fill:rgb(25,25,25);fill-rule:nonzero;"/>
            </g>
            <g transform="matrix(1898.02,0,0,1898.02,4276.24,0)">
                <path d="M0.081,-0L0.081,-0.662L0.568,-0.662L0.568,-0.59L0.156,-0.59L0.156,-0.368L0.524,-0.368L0.524,-0.295L0.156,-0.295L0.156,-0.072L0.568,-0.072L0.568,-0L0.081,-0Z" style="fill:rgb(25,25,25);fill-rule:nonzero;"/>
            </g>
            <g transform="matrix(1898.02,0,0,1898.02,5430.24,0)">
                <path d="M0.318,0.008C0.253,0.008 0.2,-0.001 0.159,-0.019C0.118,-0.036 0.088,-0.061 0.068,-0.092C0.047,-0.123 0.035,-0.159 0.032,-0.198L0.11,-0.198C0.112,-0.166 0.123,-0.14 0.142,-0.121C0.161,-0.101 0.187,-0.086 0.219,-0.077C0.25,-0.068 0.285,-0.063 0.323,-0.063C0.379,-0.063 0.423,-0.073 0.456,-0.093C0.489,-0.112 0.505,-0.141 0.505,-0.18C0.505,-0.203 0.497,-0.222 0.481,-0.236C0.464,-0.251 0.443,-0.263 0.416,-0.272C0.389,-0.281 0.359,-0.29 0.327,-0.298C0.295,-0.305 0.263,-0.313 0.231,-0.322C0.198,-0.331 0.169,-0.342 0.141,-0.355C0.115,-0.368 0.093,-0.386 0.077,-0.406C0.06,-0.428 0.052,-0.454 0.052,-0.487C0.052,-0.541 0.073,-0.585 0.115,-0.619C0.156,-0.653 0.218,-0.67 0.301,-0.67C0.36,-0.67 0.408,-0.661 0.446,-0.644C0.484,-0.626 0.513,-0.603 0.532,-0.574C0.551,-0.545 0.561,-0.514 0.563,-0.481L0.486,-0.481C0.482,-0.514 0.465,-0.543 0.436,-0.566C0.407,-0.589 0.362,-0.6 0.301,-0.6C0.264,-0.6 0.233,-0.596 0.21,-0.589C0.187,-0.582 0.169,-0.572 0.157,-0.561C0.144,-0.549 0.136,-0.537 0.132,-0.524C0.127,-0.511 0.125,-0.499 0.125,-0.488C0.125,-0.466 0.133,-0.448 0.15,-0.435C0.166,-0.421 0.188,-0.409 0.215,-0.401C0.242,-0.392 0.271,-0.383 0.304,-0.376C0.337,-0.369 0.369,-0.361 0.402,-0.352C0.434,-0.343 0.464,-0.331 0.491,-0.318C0.518,-0.304 0.539,-0.286 0.556,-0.265C0.572,-0.244 0.58,-0.216 0.58,-0.183C0.58,-0.122 0.557,-0.075 0.51,-0.042C0.463,-0.009 0.399,0.008 0.318,0.008Z" style="fill:rgb(25,25,25);fill-rule:nonzero;"/>
            </g>
        </g>
    </g>
</svg>
